<?xml version="1.0" encoding="iso-8859-1"?>
<!-- Generator: Adobe Illustrator 19.0.0, SVG Export Plug-In . SVG Version: 6.00 Build 0)  -->
<svg version="1.1" id="Capa_1" xmlns="http://www.w3.org/2000/svg" xmlns:xlink="http://www.w3.org/1999/xlink" x="0px" y="0px"
	 viewBox="0 0 512.051 512.051" style="enable-background:new 0 0 512.051 512.051;" xml:space="preserve">
<g transform="translate(0 -1)">
	<path style="fill:#F3D55B;" d="M286.639,398.267c-40.91,34.82-94.932,50.146-148.032,41.996
		c-53.101-8.15-100.039-38.971-128.624-84.457c0-0.088-0.088-0.088-0.088-0.177v-0.088l0.088,0.265
		c47.062,112.52,166.969,176.214,286.55,152.214s205.625-129.029,205.625-250.995S416.113,30.031,296.532,6.031
		S57.044,45.725,9.982,158.245l-0.088,0.265v-0.088c0-0.088,0.088-0.088,0.088-0.177C53.97,88.362,138.887,56.014,218.222,78.918
		s133.944,95.533,133.918,178.108c0,5.473-0.265,10.858-0.794,16.154L286.639,398.267z"/>
	<g>
		<path style="fill:#E4C05C;" d="M439.777,159.918c-3.224,0.004-6.194-1.751-7.746-4.578c-8.429-15.327-18.712-29.559-30.617-42.375
			c-2.147-2.31-2.898-5.59-1.971-8.604c0.927-3.014,3.392-5.304,6.465-6.009c3.074-0.704,6.29,0.285,8.436,2.595
			c12.896,13.878,24.033,29.291,33.159,45.892c1.502,2.733,1.449,6.056-0.137,8.741
			C445.781,158.266,442.896,159.915,439.777,159.918L439.777,159.918z"/>
		<path style="fill:#E4C05C;" d="M378.613,89.405c-1.911,0.001-3.771-0.621-5.297-1.772c-5.448-4.099-11.159-7.978-16.97-11.534
			c-4.159-2.542-5.469-7.975-2.927-12.134c2.543-4.159,7.975-5.469,12.134-2.927c6.293,3.845,12.474,8.047,18.375,12.483
			c3.037,2.283,4.273,6.254,3.067,9.857C385.79,86.982,382.413,89.409,378.613,89.405L378.613,89.405z"/>
		<path style="fill:#E4C05C;" d="M325.661,59.956c-1.09-0.001-2.17-0.204-3.185-0.599c-24.323-9.417-50.185-14.23-76.267-14.194
			c-4.875,0-8.828-3.952-8.828-8.828s3.952-8.828,8.828-8.828c28.261-0.037,56.283,5.179,82.638,15.384
			c3.964,1.535,6.271,5.676,5.491,9.855S329.912,59.955,325.661,59.956L325.661,59.956z"/>
	</g>
	<path style="fill:#E6E7E8;" d="M396.277,349.376c-0.135,23.956-17.549,44.313-41.195,48.158c-2.718,0.494-5.476,0.739-8.239,0.734
		H198.54c-2.763,0.006-5.521-0.24-8.239-0.734c-23.668-3.805-41.102-24.186-41.195-48.158c-0.027-13.002,5.203-25.462,14.501-34.55
		c7.42-7.371,17.007-12.169,27.354-13.69c3.833-23.934,24.536-41.504,48.775-41.394c5.908-0.028,11.771,1.021,17.302,3.096
		c9.032-13.175,23.433-21.675,39.332-23.216c15.899-1.541,31.664,4.035,43.059,15.23c10.013,9.904,15.649,23.4,15.654,37.484v8.882
		C378.75,305.023,396.184,325.403,396.277,349.376z"/>
</g>
<g>
</g>
<g>
</g>
<g>
</g>
<g>
</g>
<g>
</g>
<g>
</g>
<g>
</g>
<g>
</g>
<g>
</g>
<g>
</g>
<g>
</g>
<g>
</g>
<g>
</g>
<g>
</g>
<g>
</g>
</svg>
