<?xml version="1.0" encoding="UTF-8" standalone="no"?>
<!-- Generator: Adobe Illustrator 14.0.0, SVG Export Plug-In . SVG Version: 6.00 Build 43363)  -->

<svg
   xmlns:dc="http://purl.org/dc/elements/1.1/"
   xmlns:cc="http://creativecommons.org/ns#"
   xmlns:rdf="http://www.w3.org/1999/02/22-rdf-syntax-ns#"
   xmlns:svg="http://www.w3.org/2000/svg"
   xmlns="http://www.w3.org/2000/svg"
   xmlns:sodipodi="http://sodipodi.sourceforge.net/DTD/sodipodi-0.dtd"
   xmlns:inkscape="http://www.inkscape.org/namespaces/inkscape"
   version="1.1"
   id="Layer_1"
   x="0px"
   y="0px"
   width="35.727px"
   height="30.538px"
   viewBox="0 0 373.727 378.538"
   enable-background="new 0 0 373.727 378.538"
   xml:space="preserve"
   sodipodi:docname="PakOSlogo.svg"
   inkscape:version="0.92.4 (5da689c313, 2019-01-14)"><metadata
   id="metadata15"><rdf:RDF><cc:Work
       rdf:about=""><dc:format>image/svg+xml</dc:format><dc:type
         rdf:resource="http://purl.org/dc/dcmitype/StillImage" /></cc:Work></rdf:RDF></metadata><defs
   id="defs13" /><sodipodi:namedview
   pagecolor="#ffffff"
   bordercolor="#666666"
   borderopacity="1"
   objecttolerance="10"
   gridtolerance="10"
   guidetolerance="10"
   inkscape:pageopacity="0"
   inkscape:pageshadow="2"
   inkscape:window-width="1366"
   inkscape:window-height="696"
   id="namedview11"
   showgrid="false"
   inkscape:zoom="7.7280765"
   inkscape:cx="17.863501"
   inkscape:cy="15.269"
   inkscape:window-x="0"
   inkscape:window-y="0"
   inkscape:window-maximized="1"
   inkscape:current-layer="Layer_1" />
<path
   fill-rule="evenodd"
   clip-rule="evenodd"
   fill="#FFFFFF"
   d="M5.669,183.879c0-41.328,0-82.657,0-123.985  c48.464-7.529,101.536-15.782,149.981-19.997c0,47.66,0,95.321,0,142.982C105.17,182.725,56.734,184.617,5.669,183.879z"
   id="path2"
   style="fill:#e6e6e6" />
<path
   fill-rule="evenodd"
   clip-rule="evenodd"
   fill="#4E9A06"
   d="M370.309,374.507V200.876c-65.221,0-130.44,0-195.661,0  c-1.165,0.168-1.086,1.581-1,3c0,47.66,0,95.321,0,142.981C239.8,355.475,305.36,364.687,370.309,374.507z"
   id="path4" />
<path
   fill-rule="evenodd"
   clip-rule="evenodd"
   fill="#4E9A06"
   d="M370.309,7.941c-66.592,8.28-130.967,18.778-196.661,27.956  c0,48.994,0,97.987,0,146.981c65.155-1.051,131.761-0.652,196.661-1.959V7.941z"
   id="path6" />
<path
   fill-rule="evenodd"
   clip-rule="evenodd"
   fill="#FFFFFF"
   d="M154.809,200.84c-47.765-2.269-99.768-0.301-149.14-0.963  c0,41.328,0,82.656,0,123.984c49.902,6.424,99.053,13.601,148.981,19.998c0.06-1.166,0.104-2.347,0.159-3.519V200.84z"
   id="path8"
   style="fill:#e6e6e6" />
</svg>