<?xml version="1.0" encoding="UTF-8" standalone="no"?>
<!-- Generator: Adobe Illustrator 19.0.0, SVG Export Plug-In . SVG Version: 6.00 Build 0)  -->

<svg
   xmlns:osb="http://www.openswatchbook.org/uri/2009/osb"
   xmlns:dc="http://purl.org/dc/elements/1.1/"
   xmlns:cc="http://creativecommons.org/ns#"
   xmlns:rdf="http://www.w3.org/1999/02/22-rdf-syntax-ns#"
   xmlns:svg="http://www.w3.org/2000/svg"
   xmlns="http://www.w3.org/2000/svg"
   xmlns:sodipodi="http://sodipodi.sourceforge.net/DTD/sodipodi-0.dtd"
   xmlns:inkscape="http://www.inkscape.org/namespaces/inkscape"
   version="1.1"
   id="Layer_1"
   x="0px"
   y="0px"
   viewBox="0 0 512 512"
   style="enable-background:new 0 0 512 512;"
   xml:space="preserve"
   sodipodi:docname="PakOS-svgrepo-com.svg"
   inkscape:version="0.92.4 (5da689c313, 2019-01-14)"><metadata
     id="metadata45"><rdf:RDF><cc:Work
         rdf:about=""><dc:format>image/svg+xml</dc:format><dc:type
           rdf:resource="http://purl.org/dc/dcmitype/StillImage" /></cc:Work></rdf:RDF></metadata><defs
     id="defs43"><linearGradient
       id="linearGradient5952"
       osb:paint="solid"><stop
         style="stop-color:#5c8f6d;stop-opacity:0.21960784;"
         offset="0"
         id="stop5950" /></linearGradient></defs><sodipodi:namedview
     pagecolor="#ffffff"
     bordercolor="#666666"
     borderopacity="1"
     objecttolerance="10"
     gridtolerance="10"
     guidetolerance="10"
     inkscape:pageopacity="0"
     inkscape:pageshadow="2"
     inkscape:window-width="1366"
     inkscape:window-height="696"
     id="namedview41"
     showgrid="false"
     inkscape:zoom="0.65186406"
     inkscape:cx="199.90534"
     inkscape:cy="232.88475"
     inkscape:window-x="0"
     inkscape:window-y="0"
     inkscape:window-maximized="1"
     inkscape:current-layer="Layer_1"
     inkscape:snap-nodes="true"
     inkscape:snap-center="false" /><g
     id="g3781"><polygon
       transform="matrix(1.4473165,0,0,0.94426339,-352.72713,-16.13961)"
       id="polygon6-6"
       points="512,278.456 242.526,278.456 242.526,471.579 512,512 "
       style="fill:#cccccc;fill-opacity:1" /><polygon
       transform="matrix(1.4427961,0,0,0.99095408,-351.02175,43.402576)"
       id="polygon2-3"
       points="242.526,239.832 242.526,40.421 512,0 512,239.832 "
       style="fill:#cccccc;fill-opacity:1" /></g><g
     id="g3785"
     style="fill:#004c00;fill-opacity:1"><polygon
       transform="matrix(1.4541817,0,0,0.99095408,-230.69106,30.372881)"
       id="polygon2"
       points="242.526,40.421 512,0 512,239.832 242.526,239.832 "
       style="fill:#004c00;fill-opacity:1" /><polygon
       transform="matrix(1.4530093,0,0,0.94426339,-230.40671,-4.0052324)"
       id="polygon6"
       points="512,278.456 242.526,278.456 242.526,471.579 512,512 "
       style="fill:#004c00;fill-opacity:1" /></g><g
     id="g10" /><g
     id="g12" /><g
     id="g14" /><g
     id="g16" /><g
     id="g18" /><g
     id="g20" /><g
     id="g22" /><g
     id="g24" /><g
     id="g26" /><g
     id="g28" /><g
     id="g30" /><g
     id="g32" /><g
     id="g34" /><g
     id="g36" /><g
     id="g38" /><g
     transform="rotate(-45,356.82756,-32.558395)"
     style="fill:#cccccc;fill-opacity:1;stroke:none"
     id="g4"><path
       inkscape:connector-curvature="0"
       d="M 125.13485,36.187753 C 67.60819,37.282014 21.25984,84.307148 21.259843,142.094 c 0,58.47207 47.465507,105.9375 105.937507,105.9375 27.33767,0 52.26496,-10.38375 71.0625,-27.40625 -13.25294,7.61817 -28.62654,11.96875 -45,11.96875 -49.92978,0 -90.437507,-40.50772 -90.437507,-90.4375 0,-49.929782 40.507727,-90.437497 90.437507,-90.437497 16.50367,0 31.98804,4.425296 45.3125,12.15625 -18.83343,-17.191643 -43.8851,-27.687502 -71.375,-27.6875 -0.68522,0 -1.38037,-0.01297 -2.0625,0 z"
       id="path1315"
       style="fill:#cccccc" /><path
       inkscape:connector-curvature="0"
       d="m 316.15204,177.15572 -91.15551,29.61822 56.3372,-77.54151 V 225.079 l -56.3372,-77.5415 z"
       transform="translate(-50.0214,-34.99975)"
       id="path3098"
       style="fill:#cccccc" /></g></svg>