<?xml version="1.0" encoding="UTF-8" standalone="no"?>
<svg xmlns="http://www.w3.org/2000/svg" width="272" height="256" viewBox="7 14 272 256">
  <g style="fill:#007f00;fill-opacity:1;stroke:none">
    <path d="M 125.13485,36.187753 C67.60819,37.282014 21.25984,84.307148 21.259843,142.094 C21.259843,200.56607 68.72535,248.0315 127.19735,248.0315 C154.53502,248.0315 179.46231,237.64775 198.25985,220.62525 C185.00691,228.24342 169.63331,232.594 153.25985,232.594 C103.33007,232.594 62.822343,192.08628 62.822343,142.1565 C62.822343,92.226718 103.33007,51.719003 153.25985,51.719003 C169.76352,51.719003 185.24789,56.144299 198.57235,63.875253 C179.73892,46.68361 154.68725,36.187751 127.19735,36.187753 C126.51213,36.187753 125.81698,36.174778 125.13485,36.187753 z" id="path1315"/>
    <path d="M 316.15204,177.15572 L224.99653,206.77394 L281.33373,129.23243 V225.079 L224.99653,147.5375z" transform="translate(-50.0214,-34.99975)" id="path3098"/>
  </g>
</svg>